<svg width="25" height="24" viewBox="0 0 25 24" fill="none" xmlns="http://www.w3.org/2000/svg">
<path d="M6.33301 23C5.78301 23 5.31217 22.8042 4.92051 22.4125C4.52884 22.0208 4.33301 21.55 4.33301 21V3C4.33301 2.45 4.52884 1.97917 4.92051 1.5875C5.31217 1.19583 5.78301 1 6.33301 1H16.333C16.883 1 17.3538 1.19583 17.7455 1.5875C18.1372 1.97917 18.333 2.45 18.333 3V7H16.333V6H6.33301V18H16.333V17H18.333V21C18.333 21.55 18.1372 22.0208 17.7455 22.4125C17.3538 22.8042 16.883 23 16.333 23H6.33301ZM6.33301 20V21H16.333V20H6.33301ZM15.283 16L11.033 11.75L12.433 10.35L15.283 13.2L20.933 7.55L22.333 8.95L15.283 16ZM6.33301 4H16.333V3H6.33301V4Z" fill="#6F6F6F"/>
</svg>
